<?xml version="1.0" encoding="utf-8"?>
<!-- Generator: Adobe Illustrator 15.1.0, SVG Export Plug-In . SVG Version: 6.00 Build 0)  -->
<!DOCTYPE svg PUBLIC "-//W3C//DTD SVG 1.1//EN" "http://www.w3.org/Graphics/SVG/1.1/DTD/svg11.dtd">
<svg version="1.1" id="Layer_1" xmlns="http://www.w3.org/2000/svg" xmlns:xlink="http://www.w3.org/1999/xlink" x="0px" y="0px"
	 width="82.953px" height="30.539px" viewBox="0 0 82.953 30.539" enable-background="new 0 0 82.953 30.539" xml:space="preserve">
<g>
	<g>
		<linearGradient id="SVGID_1_" gradientUnits="userSpaceOnUse" x1="5.3193" y1="25.8789" x2="5.3193" y2="9.0483">
			<stop  offset="0" style="stop-color:#FFFFFF;stop-opacity:0"/>
			<stop  offset="0.9104" style="stop-color:#FFFFFF;stop-opacity:0.9104"/>
			<stop  offset="1" style="stop-color:#FFFFFF"/>
		</linearGradient>
		<polygon fill="url(#SVGID_1_)" points="5.342,21.044 5.297,21.044 2.978,28.104 0.011,28.104 3.923,17.664 6.781,17.664 
			10.628,28.104 7.662,28.104 		"/>
		<linearGradient id="SVGID_2_" gradientUnits="userSpaceOnUse" x1="17.1406" y1="25.8779" x2="17.1406" y2="9.0498">
			<stop  offset="0" style="stop-color:#FFFFFF;stop-opacity:0"/>
			<stop  offset="0.9104" style="stop-color:#FFFFFF;stop-opacity:0.9104"/>
			<stop  offset="1" style="stop-color:#FFFFFF"/>
		</linearGradient>
		<path fill="url(#SVGID_2_)" d="M21.31,26.801c0.946-1.037,1.419-2.303,1.419-3.795c0-1.49-0.473-2.756-1.44-3.794
			c-0.947-1.038-2.151-1.548-3.611-1.548c-1.397,0-2.493,0.416-3.31,1.228v-4.248h-2.816v13.459h2.816v-0.85h0.043
			c0.923,0.738,2.02,1.094,3.31,1.094C19.161,28.348,20.365,27.84,21.31,26.801z M19.784,23.006c0,0.87-0.194,1.568-0.581,2.097
			c-0.495,0.661-1.204,0.999-2.17,0.999s-1.699-0.338-2.17-0.999c-0.388-0.528-0.604-1.227-0.604-2.097
			c0-0.85,0.216-1.547,0.604-2.094c0.471-0.662,1.203-0.984,2.17-0.984s1.676,0.322,2.17,0.984
			C19.59,21.459,19.784,22.156,19.784,23.006z"/>
		<linearGradient id="SVGID_3_" gradientUnits="userSpaceOnUse" x1="28.5322" y1="25.8779" x2="28.5322" y2="9.0493">
			<stop  offset="0" style="stop-color:#FFFFFF;stop-opacity:0"/>
			<stop  offset="0.9104" style="stop-color:#FFFFFF;stop-opacity:0.9104"/>
			<stop  offset="1" style="stop-color:#FFFFFF"/>
		</linearGradient>
		<path fill="url(#SVGID_3_)" d="M32.034,23.613c-0.428,0.168-1.61,0.413-3.523,0.734c-1.27,0.207-1.894,0.547-1.894,1
			c0,0.682,0.71,1.002,2.13,0.982c1.461,0,2.429-0.492,2.921-1.436l1.935,1.604c-1.116,1.246-2.73,1.85-4.792,1.85
			c-1.528,0-2.753-0.264-3.655-0.772c-0.988-0.586-1.482-1.435-1.482-2.528c0-1.115,0.624-1.928,1.849-2.419
			c0.472-0.169,1.611-0.434,3.481-0.772c1.225-0.209,1.849-0.548,1.849-0.982c0-0.303-0.194-0.565-0.624-0.812
			c-0.452-0.244-0.987-0.376-1.634-0.376c-1.568,0-2.685,0.414-3.353,1.262l-2.104-1.434c1.246-1.226,3.115-1.85,5.63-1.85
			c1.44,0,2.645,0.281,3.59,0.868c1.052,0.643,1.57,1.548,1.57,2.699C33.927,22.325,33.303,23.14,32.034,23.613z"/>
		<linearGradient id="SVGID_4_" gradientUnits="userSpaceOnUse" x1="40.2021" y1="25.8779" x2="40.2021" y2="9.0493">
			<stop  offset="0" style="stop-color:#FFFFFF;stop-opacity:0"/>
			<stop  offset="0.9104" style="stop-color:#FFFFFF;stop-opacity:0.9104"/>
			<stop  offset="1" style="stop-color:#FFFFFF"/>
		</linearGradient>
		<path fill="url(#SVGID_4_)" d="M45.468,25.008v-5.381v-1.963h-2.794v1.168c-1.097-0.773-2.365-1.168-3.782-1.168
			c-1.141,0-2.087,0.281-2.839,0.868c-0.752,0.586-1.118,1.377-1.118,2.341c0,1.718,1.183,2.775,3.525,3.191l1.183,0.188
			c0.772,0.132,1.783,0.341,3.031,0.604v0.303c0,0.87-0.733,1.302-2.215,1.302c-0.795,0-1.376-0.111-1.676-0.341
			c-0.323-0.225-0.474-0.622-0.474-1.188l-2.815,0.096c0,1.113,0.517,1.962,1.524,2.566c0.883,0.51,2.042,0.754,3.44,0.754
			c1.526,0,2.665-0.187,3.46-0.584C44.952,27.254,45.468,26.33,45.468,25.008z M42.674,23.006c-0.302-0.131-0.753-0.246-1.334-0.358
			l-1.546-0.284c-0.646-0.112-1.098-0.264-1.356-0.414c-0.386-0.227-0.579-0.547-0.579-1.002c0-0.377,0.193-0.678,0.537-0.905
			c0.342-0.245,0.774-0.356,1.288-0.356c0.753,0,1.42,0.148,1.979,0.432c0.664,0.36,1.01,0.83,1.01,1.438V23.006z"/>
	</g>
	<g>
		<polygon fill="#FFFFFF" points="5.342,13.244 5.297,13.244 2.978,5.206 0.011,5.206 3.923,17.09 6.781,17.09 10.628,5.206 
			7.662,5.206 		"/>
		<path fill="#FFFFFF" d="M17.721,4.925c-1.29,0-2.387,0.408-3.31,1.248h-0.043V5.206h-2.816v15.323h2.816v-4.835
			c0.816,0.924,1.912,1.397,3.31,1.397c1.46,0,2.665-0.58,3.611-1.762c0.967-1.182,1.44-2.621,1.44-4.32
			c0-1.697-0.473-3.138-1.419-4.319C20.365,5.506,19.161,4.925,17.721,4.925z M19.204,13.394c-0.495,0.752-1.204,1.118-2.17,1.118
			s-1.699-0.366-2.17-1.118c-0.388-0.623-0.604-1.419-0.604-2.386c0-0.989,0.216-1.783,0.604-2.384
			c0.471-0.753,1.203-1.14,2.17-1.14s1.676,0.387,2.17,1.14c0.387,0.602,0.581,1.395,0.581,2.384
			C19.784,11.974,19.59,12.771,19.204,13.394z"/>
		<path fill="#FFFFFF" d="M32.034,10.319c-0.428-0.191-1.61-0.471-3.523-0.835c-1.27-0.237-1.894-0.624-1.894-1.141
			c0-0.773,0.71-1.138,2.13-1.118c1.461,0,2.429,0.559,2.921,1.634l1.935-1.827c-1.116-1.419-2.73-2.107-4.792-2.107
			c-1.528,0-2.753,0.301-3.655,0.881c-0.988,0.667-1.482,1.633-1.482,2.879c0,1.269,0.624,2.193,1.849,2.753
			c0.472,0.193,1.611,0.495,3.481,0.881c1.225,0.235,1.849,0.623,1.849,1.117c0,0.344-0.194,0.645-0.624,0.926
			c-0.452,0.278-0.987,0.429-1.634,0.429c-1.568,0-2.685-0.474-3.353-1.44l-2.104,1.634c1.246,1.396,3.115,2.104,5.63,2.104
			c1.44,0,2.645-0.324,3.59-0.988c1.052-0.73,1.57-1.761,1.57-3.074C33.927,11.782,33.303,10.858,32.034,10.319z"/>
		<path fill="#FFFFFF" d="M43.919,5.591c-0.795-0.449-1.934-0.666-3.46-0.666c-1.397,0-2.557,0.28-3.44,0.86
			c-1.007,0.688-1.524,1.654-1.524,2.923l2.815,0.108c0-0.646,0.151-1.097,0.474-1.354c0.299-0.257,0.88-0.386,1.676-0.386
			c1.482,0,2.215,0.494,2.215,1.483v0.344c-1.248,0.299-2.259,0.536-3.031,0.687l-1.183,0.216c-2.343,0.471-3.525,1.675-3.525,3.631
			c0,1.096,0.366,2,1.118,2.665c0.752,0.664,1.698,0.988,2.839,0.988c1.417,0,2.685-0.451,3.782-1.332v1.332h2.794v-2.234V8.732
			C45.468,7.226,44.952,6.173,43.919,5.591z M42.674,12.663c0,0.689-0.346,1.226-1.01,1.632c-0.56,0.324-1.226,0.497-1.979,0.497
			c-0.514,0-0.946-0.129-1.288-0.409c-0.344-0.257-0.537-0.602-0.537-1.031c0-0.517,0.193-0.881,0.579-1.141
			c0.258-0.172,0.71-0.343,1.356-0.471l1.546-0.322c0.581-0.129,1.032-0.257,1.334-0.409V12.663z"/>
	</g>
	<path fill="none" d="M19.192,8.624c-0.494-0.753-1.205-1.14-2.171-1.14c-0.965,0-1.697,0.387-2.169,1.14
		c-0.387,0.602-0.602,1.395-0.602,2.384c0,0.305,0.022,0.589,0.064,0.859c1.688,0.399,3.406,0.727,5.169,0.917
		c0.189-0.508,0.29-1.098,0.29-1.776C19.773,10.019,19.579,9.225,19.192,8.624z"/>
	<g>
		<linearGradient id="SVGID_5_" gradientUnits="userSpaceOnUse" x1="8.4722" y1="4.168" x2="8.4722" y2="19.9582">
			<stop  offset="0" style="stop-color:#333333;stop-opacity:0"/>
			<stop  offset="0.2418" style="stop-color:#353535;stop-opacity:0.2418"/>
			<stop  offset="0.436" style="stop-color:#3A3A3A;stop-opacity:0.436"/>
			<stop  offset="0.6137" style="stop-color:#434242;stop-opacity:0.6137"/>
			<stop  offset="0.7815" style="stop-color:#4F4F4F;stop-opacity:0.7815"/>
			<stop  offset="0.9409" style="stop-color:#606060;stop-opacity:0.9409"/>
			<stop  offset="1" style="stop-color:#676767"/>
		</linearGradient>
		<path fill="url(#SVGID_5_)" d="M6.327,9.787c0.907,0.192,1.779,0.408,2.602,0.635l1.688-5.216H7.65L6.327,9.787z"/>
		<g>
			<linearGradient id="SVGID_6_" gradientUnits="userSpaceOnUse" x1="2.0889" y1="4.168" x2="2.0889" y2="19.9586">
				<stop  offset="0" style="stop-color:#333333;stop-opacity:0"/>
				<stop  offset="0.2418" style="stop-color:#353535;stop-opacity:0.2418"/>
				<stop  offset="0.436" style="stop-color:#3A3A3A;stop-opacity:0.436"/>
				<stop  offset="0.6137" style="stop-color:#434242;stop-opacity:0.6137"/>
				<stop  offset="0.7815" style="stop-color:#4F4F4F;stop-opacity:0.7815"/>
				<stop  offset="0.9409" style="stop-color:#606060;stop-opacity:0.9409"/>
				<stop  offset="1" style="stop-color:#676767"/>
			</linearGradient>
			<path fill="url(#SVGID_6_)" d="M0,5.206l1.285,3.903c0.966,0.048,1.937,0.148,2.892,0.291L2.966,5.206H0z"/>
			<linearGradient id="SVGID_7_" gradientUnits="userSpaceOnUse" x1="17.1299" y1="4.1675" x2="17.1299" y2="19.9606">
				<stop  offset="0" style="stop-color:#333333;stop-opacity:0"/>
				<stop  offset="0.2418" style="stop-color:#353535;stop-opacity:0.2418"/>
				<stop  offset="0.436" style="stop-color:#3A3A3A;stop-opacity:0.436"/>
				<stop  offset="0.6137" style="stop-color:#434242;stop-opacity:0.6137"/>
				<stop  offset="0.7815" style="stop-color:#4F4F4F;stop-opacity:0.7815"/>
				<stop  offset="0.9409" style="stop-color:#606060;stop-opacity:0.9409"/>
				<stop  offset="1" style="stop-color:#676767"/>
			</linearGradient>
			<path fill="url(#SVGID_7_)" d="M17.709,4.925c-1.29,0-2.386,0.408-3.31,1.248h-0.042V5.206h-2.815v5.948
				c0.916,0.25,1.838,0.492,2.772,0.713c-0.042-0.27-0.064-0.554-0.064-0.859c0-0.989,0.214-1.783,0.602-2.384
				c0.472-0.753,1.204-1.14,2.169-1.14c0.967,0,1.678,0.387,2.171,1.14c0.387,0.602,0.581,1.395,0.581,2.384
				c0,0.678-0.101,1.268-0.29,1.776c0.981,0.107,1.979,0.167,2.992,0.174c0.158-0.608,0.243-1.256,0.243-1.95
				c0-1.697-0.474-3.138-1.419-4.319C20.354,5.506,19.15,4.925,17.709,4.925z"/>
			<linearGradient id="SVGID_8_" gradientUnits="userSpaceOnUse" x1="28.6279" y1="4.1675" x2="28.6279" y2="19.9583">
				<stop  offset="0" style="stop-color:#333333;stop-opacity:0"/>
				<stop  offset="0.2418" style="stop-color:#353535;stop-opacity:0.2418"/>
				<stop  offset="0.436" style="stop-color:#3A3A3A;stop-opacity:0.436"/>
				<stop  offset="0.6137" style="stop-color:#434242;stop-opacity:0.6137"/>
				<stop  offset="0.7815" style="stop-color:#4F4F4F;stop-opacity:0.7815"/>
				<stop  offset="0.9409" style="stop-color:#606060;stop-opacity:0.9409"/>
				<stop  offset="1" style="stop-color:#676767"/>
			</linearGradient>
			<path fill="url(#SVGID_8_)" d="M28.736,7.226c1.46,0,2.429,0.559,2.923,1.634l1.934-1.827c-1.116-1.419-2.729-2.107-4.792-2.107
				c-1.527,0-2.751,0.301-3.654,0.881c-0.989,0.667-1.484,1.633-1.484,2.879c0,1.269,0.624,2.193,1.849,2.753
				c0.465,0.188,1.577,0.484,3.393,0.861c1.534-0.27,3.044-0.583,4.527-0.908c-0.313-0.446-0.782-0.805-1.408-1.073
				c-0.43-0.191-1.613-0.471-3.526-0.835c-1.268-0.237-1.89-0.624-1.89-1.141C26.608,7.57,27.317,7.206,28.736,7.226z"/>
			<linearGradient id="SVGID_9_" gradientUnits="userSpaceOnUse" x1="40.4702" y1="4.1675" x2="40.4702" y2="19.9594">
				<stop  offset="0" style="stop-color:#333333;stop-opacity:0"/>
				<stop  offset="0.2418" style="stop-color:#353535;stop-opacity:0.2418"/>
				<stop  offset="0.436" style="stop-color:#3A3A3A;stop-opacity:0.436"/>
				<stop  offset="0.6137" style="stop-color:#434242;stop-opacity:0.6137"/>
				<stop  offset="0.7815" style="stop-color:#4F4F4F;stop-opacity:0.7815"/>
				<stop  offset="0.9409" style="stop-color:#606060;stop-opacity:0.9409"/>
				<stop  offset="1" style="stop-color:#676767"/>
			</linearGradient>
			<path fill="url(#SVGID_9_)" d="M43.91,5.591c-0.796-0.449-1.934-0.666-3.461-0.666c-1.397,0-2.557,0.28-3.439,0.86
				C36,6.474,35.484,7.44,35.484,8.708l2.815,0.108c0-0.646,0.15-1.097,0.474-1.354c0.3-0.257,0.881-0.386,1.676-0.386
				c1.484,0,2.216,0.494,2.216,1.483v0.344c-1.247,0.299-2.257,0.536-3.032,0.687L38.45,9.806c-0.994,0.201-1.78,0.534-2.353,1
				c3.103-0.681,6.203-1.288,9.36-1.851V8.732C45.457,7.226,44.941,6.173,43.91,5.591z"/>
		</g>
	</g>
</g>
<g>
	<g>
		<linearGradient id="SVGID_10_" gradientUnits="userSpaceOnUse" x1="62.7749" y1="5.3652" x2="76.4646" y2="13.0545">
			<stop  offset="0" style="stop-color:#046937"/>
			<stop  offset="1" style="stop-color:#010101"/>
		</linearGradient>
		<path fill="url(#SVGID_10_)" d="M66.636,5.969c-2.713,2.956,1.424,7.726,1.424,7.726s-9.299-1.589-6.698-8.661
			c0.336-0.954,1.814-2.844,4.17-2.899c4.115-0.113,7.203,3.198,7.203,3.198S68.544,3.914,66.636,5.969L66.636,5.969z"/>
		<linearGradient id="SVGID_11_" gradientUnits="userSpaceOnUse" x1="72.7925" y1="6.2192" x2="84.6118" y2="-6.222">
			<stop  offset="0" style="stop-color:#51BB79"/>
			<stop  offset="0.7734" style="stop-color:#74C04E"/>
		</linearGradient>
		<path fill="url(#SVGID_11_)" d="M62.017,3.93c0,0,5.255-1.402,10.718,1.403c8.379,4.284-0.132,8.998-0.132,8.998
			s12.908-0.86,9.577-9.539c-1.196-3.125-3.966-4.134-6.116-4.416c-3.648-0.484-4.9-0.484-7.633-0.093
			C63.943,0.938,62.017,3.93,62.017,3.93L62.017,3.93z"/>
		<linearGradient id="SVGID_12_" gradientUnits="userSpaceOnUse" x1="71.7925" y1="22.5996" x2="71.7925" y2="12.599">
			<stop  offset="0" style="stop-color:#046937"/>
			<stop  offset="1" style="stop-color:#079247"/>
		</linearGradient>
		<path fill="url(#SVGID_12_)" d="M61.362,5.034c0,0-2.114,4.433,0.858,9.84c5.949,10.849,13.264,6.547,14.74,5.387
			c6.342-4.976,6.811-12.159,5.22-15.469c-0.411-0.861,3.573,5.799-5.874,8.754c-3.554,1.123-7.125,0.542-8.904-0.037
			C58.966,10.721,61.362,5.034,61.362,5.034L61.362,5.034z"/>
	</g>
	<linearGradient id="SVGID_13_" gradientUnits="userSpaceOnUse" x1="71.105" y1="22.3037" x2="71.105" y2="29.7954">
		<stop  offset="0" style="stop-color:#046937;stop-opacity:0.1"/>
		<stop  offset="1" style="stop-color:#079247;stop-opacity:0"/>
	</linearGradient>
	<path fill="url(#SVGID_13_)" d="M66.396,30.539c0.104-0.036,0.205-0.072,0.313-0.107c1.779-0.564,5.351-1.13,8.904-0.035
		c0.152,0.046,0.291,0.095,0.436,0.143h5.326c-0.885-2.318-2.488-4.686-5.107-6.688c-1.478-1.13-8.791-5.322-14.74,5.25
		c-0.275,0.49-0.495,0.967-0.691,1.438H66.396z"/>
</g>
</svg>
